<svg width="64" height="54" viewBox="0 0 64 54" fill="none" xmlns="http://www.w3.org/2000/svg">
<path d="M42.4195 45.9801L42.2148 45.7778Z" fill="white"/>
<path d="M42.0985 46.4585C42.0294 46.5287 41.9616 46.599 41.8926 46.6693Z" fill="white"/>
<path d="M16.7604 27.3577C16.4939 24.1031 13.9843 21.906 10.7928 22.1361C9.2836 22.2439 7.90524 22.9464 6.91326 24.1116C5.92733 25.2708 5.45617 26.729 5.5882 28.2213C5.86072 31.2953 8.12326 33.3519 11.1573 33.3519C11.3015 33.3519 11.448 33.3471 11.5958 33.3374C13.2297 33.2332 14.5899 32.6034 15.5286 31.5157C16.4685 30.4281 16.8936 28.9904 16.7604 27.3565V27.3577ZM12.9366 29.2774C12.5272 29.7522 11.8623 29.8891 11.3778 29.9194C9.95703 30.0126 9.12372 29.2992 9.00138 27.9197C8.95051 27.3504 9.13583 26.7872 9.52221 26.3342C9.91464 25.8739 10.4536 25.5966 11.0399 25.5542C11.1125 25.5493 11.1852 25.5457 11.2554 25.5457C12.463 25.5457 13.2382 26.3136 13.3472 27.6375C13.3872 28.1231 13.3484 28.8014 12.9378 29.2762L12.9366 29.2774Z" fill="white"/>
<path d="M23.2901 16.1916C23.4343 16.1916 23.5808 16.1868 23.7286 16.1771C25.3625 16.0729 26.7227 15.4431 27.6614 14.3554C28.6013 13.2678 29.0264 11.83 28.8932 10.1961C28.6267 6.94039 26.1171 4.74205 22.9256 4.9746C21.4164 5.08361 20.0381 5.7849 19.0461 6.95009C18.0601 8.108 17.589 9.56751 17.721 11.0597C17.9935 14.1338 20.2561 16.1904 23.2901 16.1904V16.1916ZM21.6538 9.17266C22.0462 8.7124 22.5852 8.43503 23.1715 8.39264C23.2441 8.38779 23.3168 8.38416 23.387 8.38416C24.5946 8.38416 25.3698 9.15206 25.4788 10.4759C25.5188 10.9616 25.4788 11.6399 25.0694 12.1159C24.6588 12.5907 23.9951 12.7276 23.5106 12.7578C22.102 12.8535 21.2565 12.1377 21.1342 10.7581C21.0833 10.1889 21.2686 9.62565 21.655 9.17144L21.6538 9.17266Z" fill="white"/>
<path d="M41.2628 16.607C41.4069 16.607 41.5535 16.6021 41.7013 16.5924C43.3352 16.4883 44.6954 15.8585 45.6341 14.7708C46.574 13.6831 46.9991 12.2454 46.8659 10.6115C46.5994 7.35577 44.0898 5.15863 40.8982 5.38997C39.3891 5.49777 38.0107 6.20027 37.0187 7.36545C36.0328 8.52458 35.5616 9.98288 35.6937 11.4751C35.9662 14.5491 38.2287 16.6058 41.2628 16.6058V16.607ZM39.6265 9.58802C40.0189 9.12776 40.5579 8.8504 41.1441 8.808C41.2168 8.80316 41.2895 8.79953 41.3597 8.79953C42.5673 8.79953 43.3425 9.56743 43.4515 10.8913C43.4914 11.377 43.4527 12.0553 43.0421 12.5301C42.6327 13.0048 41.9677 13.1417 41.4832 13.172C40.0661 13.2677 39.2292 12.5519 39.1069 11.1723C39.056 10.603 39.2413 10.0398 39.6265 9.58681V9.58802Z" fill="white"/>
<path d="M57.6178 30.6486C58.6085 29.504 59.087 28.0348 58.9646 26.5087C58.8423 24.9922 58.1434 23.6272 56.9952 22.6655C54.6297 20.6839 51.5738 20.8305 49.43 22.9756C49.3283 23.0773 49.2277 23.1851 49.1296 23.2953C48.048 24.5247 47.532 25.9321 47.6362 27.3638C47.7416 28.7966 48.4562 30.1156 49.7062 31.1754C52.1964 33.289 55.5284 33.0565 57.6178 30.6486ZM51.053 27.1155C51.007 26.4905 51.3813 25.9236 51.701 25.5591C52.6288 24.4993 53.7334 24.4024 54.7957 25.2914C55.2341 25.6584 55.5018 26.1877 55.549 26.7812C55.5975 27.3844 55.4122 27.9609 55.0282 28.4054C54.9798 28.4611 54.9313 28.5132 54.8817 28.5629C54.0277 29.4168 52.9352 29.4228 51.9227 28.5629C51.552 28.2479 51.099 27.7405 51.053 27.1143V27.1155Z" fill="white"/>
<path d="M32.5424 20.6501C30.9508 20.6501 29.6621 21.9401 29.6621 23.5304C29.6621 25.1207 30.952 26.4107 32.5424 26.4107C34.1327 26.4107 35.4226 25.1207 35.4226 23.5304C35.4226 21.9401 34.1327 20.6501 32.5424 20.6501ZM34.6269 23.3681C34.3943 23.5655 34.2623 22.9539 33.8153 22.4282C33.3684 21.9038 32.7749 21.6651 33.0075 21.4665C33.24 21.2691 33.9244 21.412 34.3725 21.9365C34.8194 22.4609 34.8594 23.1695 34.6269 23.3669V23.3681Z" fill="white"/>
<path d="M63.9546 26.2193C63.435 19.8737 58.7428 15.7544 52.5487 16.1977C51.9079 16.2437 51.2817 16.3552 50.6701 16.5102C51.6911 14.6922 52.1272 12.4975 51.9273 10.0545C51.4077 3.70892 46.7167 -0.412825 40.5213 0.0329002C37.635 0.240017 34.997 1.58567 33.0942 3.82036C32.7575 4.21521 32.4644 4.63429 32.1919 5.06185C30.2224 1.80127 26.6687 -0.0579404 22.4029 0.241228C19.5165 0.448345 16.8785 1.794 14.9757 4.02747C13.0874 6.2452 12.1863 9.0334 12.4382 11.8797C12.6526 14.2997 13.4835 16.3636 14.7783 17.9721C13.3418 17.4356 11.7357 17.1933 10.0061 17.3181C7.11981 17.5252 4.48179 18.8708 2.57898 21.1055C0.690708 23.3233 -0.21043 26.1115 0.0415019 28.9578C0.569589 34.9242 4.79792 38.7795 10.6759 38.7795C10.9666 38.7795 11.2609 38.7698 11.5601 38.7516C12.5145 38.6911 13.4096 38.5288 14.255 38.2926C13.4847 38.9999 12.7725 39.8526 12.1706 40.9645C11.1156 42.9134 11.1447 45.0112 12.2602 47.0303C12.4237 47.3258 12.5981 47.6359 12.8052 47.8321C13.6482 48.6327 14.4779 49.5011 15.3621 50.1443C17.0275 51.3555 18.7862 52.0289 20.5558 52.5824C21.188 52.7799 21.8239 52.941 22.4598 53.073C23.0787 53.2014 23.2228 52.8695 23.0278 51.8739C22.811 50.7668 22.398 49.9093 21.75 49.4067C21.3358 49.0857 20.9046 48.8107 20.4686 48.5903C19.284 47.9908 18.0776 47.5075 16.9088 46.8292C16.1542 46.3907 15.4033 45.8057 14.7323 45.0778C13.813 44.0798 13.6422 42.7801 14.1533 41.4793C14.5603 40.4437 15.2349 39.935 15.8817 39.3924C15.9362 39.3463 16.0331 39.4239 16.1094 39.4432C16.0937 39.5813 16.1009 39.7436 16.0598 39.8551C15.5547 41.2286 15.614 41.9226 16.3759 43.0224C16.5975 43.3421 16.8434 43.6679 17.1099 43.8472C18.1576 44.5509 19.1956 45.3636 20.2784 45.8324C23.8321 47.373 27.4439 47.9169 31.0654 47.9447C34.022 47.9677 36.9337 47.4263 39.8188 46.5845C42.0063 45.9462 44.1453 45.0875 46.1414 43.5662C46.7942 43.0684 47.4204 42.4034 47.9545 41.6258C48.7321 40.4934 48.7018 39.8926 48.0393 38.4258C47.98 38.2938 47.9545 38.1242 47.9134 37.9716C48.0333 37.9268 48.1726 37.7912 48.2695 37.8529C49.0047 38.3229 49.7072 38.92 50.2001 39.9774C50.6519 40.9476 50.6446 41.7445 50.228 42.7293C50.1117 43.0042 49.9603 43.244 49.8053 43.4645C48.7224 45.0063 47.3913 45.8336 46.0251 46.4331C44.3064 47.1889 42.555 47.7994 40.7939 48.3057C39.2157 48.7599 37.6072 48.9973 36.0096 49.3085C35.1981 49.4672 34.372 49.512 33.569 49.7276C32.6194 49.9832 31.8358 50.7257 31.4082 52.1827C31.0594 53.3746 31.3161 54.008 32.1313 53.9475C33.242 53.8651 34.3466 53.6653 35.4585 53.5974C37.5297 53.4703 39.5669 53.0245 41.5957 52.4698C43.9927 51.8133 46.3376 50.8807 48.5747 49.4018C49.8404 48.5649 51.0455 47.5438 52.0339 45.9971C53.3359 43.9611 53.6714 41.3267 51.9031 38.834C51.507 38.2756 51.0867 37.8008 50.6471 37.3818C51.4622 37.5562 52.3161 37.6567 53.216 37.6567C53.5067 37.6567 53.8023 37.647 54.1002 37.6289C57.2651 37.4266 59.8728 36.2372 61.6424 34.189C63.4132 32.1396 64.2114 29.3841 63.9522 26.2193H63.9546ZM35.7031 6.0405C37.0064 4.51074 38.8038 3.59023 40.7672 3.44973C40.9937 3.43277 41.2178 3.4255 41.437 3.4255C45.4158 3.4255 48.1641 6.07563 48.5141 10.3342C48.6958 12.5617 48.181 14.4463 47.0255 15.7847C45.8713 17.1207 44.0835 17.9031 41.8573 18.0448C37.3807 18.3343 34.3599 15.7738 33.9699 11.3686C33.7991 9.44521 34.4156 7.55209 35.7031 6.0405ZM17.5847 6.24883C18.8867 4.71907 20.6854 3.79855 22.6487 3.65805C22.8752 3.6411 23.0981 3.63383 23.3173 3.63383C27.2961 3.63383 30.0456 6.28396 30.3944 10.5426C30.5773 12.77 30.0625 14.6546 28.9058 15.993C27.7516 17.3302 25.9638 18.1114 23.7376 18.2543C19.2682 18.5438 16.2402 15.9821 15.8502 11.5782C15.6794 9.65475 16.2959 7.76163 17.5835 6.24883H17.5847ZM11.3421 35.3324C6.87515 35.6231 3.8447 33.0602 3.45469 28.6562C3.28391 26.7328 3.90041 24.8409 5.18793 23.3281C6.49119 21.7983 8.28984 20.8778 10.2532 20.7373C10.4797 20.7204 10.7038 20.7131 10.923 20.7131C14.9018 20.7131 17.6513 23.3632 18.0001 27.6218C18.183 29.8493 17.6682 31.7339 16.5115 33.0723C15.3572 34.4095 13.5695 35.1907 11.3433 35.3336L11.3421 35.3324ZM25.1026 40.0137C24.0828 41.0808 22.9285 41.6501 21.7536 42.1224C21.1929 42.3477 20.649 42.2545 20.173 41.558C19.7455 40.9318 19.6716 40.2887 20.0325 39.6382C20.2542 39.241 20.5315 38.8837 20.8283 38.6499C22.2963 37.4908 23.8914 36.9469 25.5096 36.54C26.1503 36.3789 26.7971 36.2687 27.6002 36.1015C26.8831 37.8832 26.0425 39.0326 25.1026 40.0149V40.0137ZM43.9212 40.7029C43.3786 41.3352 42.7609 41.8451 42.131 42.2315C40.1095 43.4729 37.9536 43.8932 35.8061 44.3438C34.0729 44.7084 34.5598 43.3179 36.2555 42.7511C40.1229 41.5859 41.3074 39.8975 40.8326 39.1816C40.3578 38.4658 40.1616 38.427 39.8176 38.0746C36.9943 35.7345 35.1678 33.6488 34.7342 28.81C34.4932 27.095 30.6112 26.5826 30.2261 28.8827C29.9329 30.6281 29.9511 30.9188 29.7379 31.4723C29.5139 32.0512 28.9531 32.6568 28.5728 32.7247C26.8407 33.0335 25.1075 33.3448 23.3864 33.7603C21.9608 34.1054 20.5594 34.5827 19.1847 35.2052C20.8949 33.1668 21.6689 30.4536 21.4133 27.3408C21.2074 24.8264 20.3377 22.6692 18.9885 20.9989C20.2239 21.458 21.5962 21.7014 23.0727 21.7014C23.3633 21.7014 23.6589 21.6918 23.958 21.6736C27.1229 21.4713 29.7307 20.2819 31.5003 18.2338C31.8236 17.8583 32.1046 17.4525 32.3626 17.0322C34.2218 19.8386 37.3504 21.4931 41.1924 21.4931C41.483 21.4931 41.7786 21.4834 42.0777 21.4653C42.8444 21.4168 43.576 21.3066 44.2737 21.1431C42.9777 23.1379 42.3769 25.4647 42.5865 27.8362C42.8117 30.387 43.7189 32.5478 45.1361 34.1914C43.9164 33.7433 42.6821 33.4163 41.4419 33.1728C39.9848 32.887 40.6352 32.9718 39.1745 32.8349C38.5083 32.7731 38.3363 33.3097 38.6331 34.3247C38.9528 35.422 39.5257 35.9671 40.2331 36.1366C40.921 36.3014 42.6264 37.0305 43.7359 38.0455C44.5559 38.794 44.6479 39.8599 43.9236 40.7029H43.9212ZM59.0529 31.9495C57.8974 33.2855 56.1096 34.0679 53.8846 34.2096C49.4201 34.4991 46.3872 31.9386 45.9972 27.5334C45.8264 25.61 46.4429 23.7169 47.7305 22.2053C49.0337 20.6755 50.8312 19.755 52.7957 19.6145C53.0222 19.5976 53.2451 19.5903 53.4643 19.5903C57.4419 19.5903 60.1914 22.2404 60.5414 26.499C60.7231 28.7265 60.2083 30.6111 59.0529 31.9495Z" fill="white"/>
</svg>
